<svg width="44" height="44" fill="none" xmlns="http://www.w3.org/2000/svg"><path fill-rule="evenodd" clip-rule="evenodd" d="M27.343 2.343a8 8 0 0 0-11.314 0L2.343 16.03a8 8 0 0 0 0 11.314L16.03 41.03a8 8 0 0 0 11.314 0L41.03 27.343a8 8 0 0 0 0-11.314L27.343 2.343Zm-13.656 13.01c0-1.932 1.535-3.5 3.428-3.5h11.429c.632 0 1.142.521 1.142 1.167v11.666c0 .646-.51 1.167-1.142 1.167v2.333c.632 0 1.142.522 1.142 1.167s-.51 1.166-1.142 1.166h-11.43c-1.893 0-3.428-1.567-3.428-3.5V15.354Zm12.57 10.5h-9.142c-.632 0-1.143.521-1.143 1.167 0 .645.51 1.166 1.143 1.166h9.143v-2.333ZM18.83 16.52a.58.58 0 0 0-.571.583c0 .32.257.583.571.583h6.857a.58.58 0 0 0 .572-.583.58.58 0 0 0-.572-.583H18.83Zm6.857 2.333H18.83a.58.58 0 0 0-.571.583.58.58 0 0 0 .571.584h6.857a.58.58 0 0 0 .572-.584.58.58 0 0 0-.572-.583Z" fill="#161616"/><path fill-rule="evenodd" clip-rule="evenodd" d="M27.343 2.343a8 8 0 0 0-11.314 0L2.343 16.03a8 8 0 0 0 0 11.314L16.03 41.03a8 8 0 0 0 11.314 0L41.03 27.343a8 8 0 0 0 0-11.314L27.343 2.343Zm-13.656 13.01c0-1.932 1.535-3.5 3.428-3.5h11.429c.632 0 1.142.521 1.142 1.167v11.666c0 .646-.51 1.167-1.142 1.167v2.333c.632 0 1.142.522 1.142 1.167s-.51 1.166-1.142 1.166h-11.43c-1.893 0-3.428-1.567-3.428-3.5V15.354Zm12.57 10.5h-9.142c-.632 0-1.143.521-1.143 1.167 0 .645.51 1.166 1.143 1.166h9.143v-2.333ZM18.83 16.52a.58.58 0 0 0-.571.583c0 .32.257.583.571.583h6.857a.58.58 0 0 0 .572-.583.58.58 0 0 0-.572-.583H18.83Zm6.857 2.333H18.83a.58.58 0 0 0-.571.583.58.58 0 0 0 .571.584h6.857a.58.58 0 0 0 .572-.584.58.58 0 0 0-.572-.583Z" fill="#000" fill-opacity=".2"/></svg>