<svg width="20" height="20" fill="none" xmlns="http://www.w3.org/2000/svg"><path d="M16.971 7h-1.656c-.25-3.36-2.55-6-5.339-6-2.788 0-5.088 2.64-5.339 6H2.981A2.962 2.962 0 0 0 .608 8.184a3.01 3.01 0 0 0-.499 2.62l1.656 6A2.989 2.989 0 0 0 4.637 19h10.726a2.978 2.978 0 0 0 1.801-.613 3.013 3.013 0 0 0 1.07-1.583l1.657-6a3.02 3.02 0 0 0-.513-2.639A2.983 2.983 0 0 0 16.971 7ZM9.976 2.2c2.145 0 3.897 2.112 4.123 4.8H5.853c.226-2.688 1.978-4.8 4.123-4.8Zm8.711 8.28-1.644 6c-.107.38-.333.713-.645.952a1.792 1.792 0 0 1-1.083.368H4.59c-.392 0-.772-.13-1.084-.368a1.812 1.812 0 0 1-.644-.952l-1.645-6a1.776 1.776 0 0 1 .298-1.572A1.778 1.778 0 0 1 2.933 8.2h14.038a1.766 1.766 0 0 1 1.418.708 1.77 1.77 0 0 1 .298 1.572Z" fill="#161616"/><path d="M16.971 7h-1.656c-.25-3.36-2.55-6-5.339-6-2.788 0-5.088 2.64-5.339 6H2.981A2.962 2.962 0 0 0 .608 8.184a3.01 3.01 0 0 0-.499 2.62l1.656 6A2.989 2.989 0 0 0 4.637 19h10.726a2.978 2.978 0 0 0 1.801-.613 3.013 3.013 0 0 0 1.07-1.583l1.657-6a3.02 3.02 0 0 0-.513-2.639A2.983 2.983 0 0 0 16.971 7ZM9.976 2.2c2.145 0 3.897 2.112 4.123 4.8H5.853c.226-2.688 1.978-4.8 4.123-4.8Zm8.711 8.28-1.644 6c-.107.38-.333.713-.645.952a1.792 1.792 0 0 1-1.083.368H4.59c-.392 0-.772-.13-1.084-.368a1.812 1.812 0 0 1-.644-.952l-1.645-6a1.776 1.776 0 0 1 .298-1.572A1.778 1.778 0 0 1 2.933 8.2h14.038a1.766 1.766 0 0 1 1.418.708 1.77 1.77 0 0 1 .298 1.572Z" fill="#000" fill-opacity=".2"/><circle cx="15" cy="6" r="4" fill="#D15D48"/><path d="M9.971 10.8a.79.79 0 0 0-.505.176.556.556 0 0 0-.21.424V15c0 .16.076.312.21.424a.79.79 0 0 0 .505.176.79.79 0 0 0 .506-.176.556.556 0 0 0 .21-.424v-3.6a.556.556 0 0 0-.21-.424.79.79 0 0 0-.506-.176Z" fill="#161616"/><path d="M9.971 10.8a.79.79 0 0 0-.505.176.556.556 0 0 0-.21.424V15c0 .16.076.312.21.424a.79.79 0 0 0 .505.176.79.79 0 0 0 .506-.176.556.556 0 0 0 .21-.424v-3.6a.556.556 0 0 0-.21-.424.79.79 0 0 0-.506-.176Z" fill="#000" fill-opacity=".2"/><path d="M14.261 10.8a.79.79 0 0 0-.505.176.556.556 0 0 0-.21.424V15c0 .16.076.312.21.424a.79.79 0 0 0 .505.176.79.79 0 0 0 .506-.176.556.556 0 0 0 .21-.424v-3.6a.556.556 0 0 0-.21-.424.79.79 0 0 0-.506-.176Z" fill="#161616"/><path d="M14.261 10.8a.79.79 0 0 0-.505.176.556.556 0 0 0-.21.424V15c0 .16.076.312.21.424a.79.79 0 0 0 .505.176.79.79 0 0 0 .506-.176.556.556 0 0 0 .21-.424v-3.6a.556.556 0 0 0-.21-.424.79.79 0 0 0-.506-.176Z" fill="#000" fill-opacity=".2"/><path d="M5.681 10.8a.79.79 0 0 0-.505.176.556.556 0 0 0-.21.424V15c0 .16.076.312.21.424a.79.79 0 0 0 .505.176.79.79 0 0 0 .506-.176.556.556 0 0 0 .21-.424v-3.6a.556.556 0 0 0-.21-.424.79.79 0 0 0-.506-.176Z" fill="#161616"/><path d="M5.681 10.8a.79.79 0 0 0-.505.176.556.556 0 0 0-.21.424V15c0 .16.076.312.21.424a.79.79 0 0 0 .505.176.79.79 0 0 0 .506-.176.556.556 0 0 0 .21-.424v-3.6a.556.556 0 0 0-.21-.424.79.79 0 0 0-.506-.176Z" fill="#000" fill-opacity=".2"/></svg>