<svg width="44" height="44" fill="none" xmlns="http://www.w3.org/2000/svg"><path fill-rule="evenodd" clip-rule="evenodd" d="M27.97 2.343a8 8 0 0 0-11.313 0L2.97 16.03a8 8 0 0 0 0 11.314L16.657 41.03a8 8 0 0 0 11.314 0l13.686-13.686a8 8 0 0 0 0-11.314L27.97 2.343Zm-10.396 8.183a2.867 2.867 0 0 0 0 4.06l3.88 3.88c.237.236.547.353.86.353.313 0 .622-.117.86-.354l3.88-3.879a2.867 2.867 0 0 0 0-4.06 2.877 2.877 0 0 0-4.064 0l-.676.677-.676-.677a2.877 2.877 0 0 0-4.064 0ZM32.69 24.183c.68-.492.825-1.432.325-2.101a1.542 1.542 0 0 0-2.135-.32l-4.572 3.316h-4.606a.608.608 0 0 1-.611-.602c0-.33.275-.601.61-.601h3.056c.676 0 1.223-.538 1.223-1.203 0-.666-.547-1.203-1.223-1.203h-6.045a4.928 4.928 0 0 0-3.057 1.052l-1.715 1.354h-1.405a1.21 1.21 0 0 0-1.222 1.203v2.405a1.21 1.21 0 0 0 1.222 1.203h12.238a5.26 5.26 0 0 0 3.082-.996l4.835-3.507Z" fill="#161616"/><path fill-rule="evenodd" clip-rule="evenodd" d="M27.97 2.343a8 8 0 0 0-11.313 0L2.97 16.03a8 8 0 0 0 0 11.314L16.657 41.03a8 8 0 0 0 11.314 0l13.686-13.686a8 8 0 0 0 0-11.314L27.97 2.343Zm-10.396 8.183a2.867 2.867 0 0 0 0 4.06l3.88 3.88c.237.236.547.353.86.353.313 0 .622-.117.86-.354l3.88-3.879a2.867 2.867 0 0 0 0-4.06 2.877 2.877 0 0 0-4.064 0l-.676.677-.676-.677a2.877 2.877 0 0 0-4.064 0ZM32.69 24.183c.68-.492.825-1.432.325-2.101a1.542 1.542 0 0 0-2.135-.32l-4.572 3.316h-4.606a.608.608 0 0 1-.611-.602c0-.33.275-.601.61-.601h3.056c.676 0 1.223-.538 1.223-1.203 0-.666-.547-1.203-1.223-1.203h-6.045a4.928 4.928 0 0 0-3.057 1.052l-1.715 1.354h-1.405a1.21 1.21 0 0 0-1.222 1.203v2.405a1.21 1.21 0 0 0 1.222 1.203h12.238a5.26 5.26 0 0 0 3.082-.996l4.835-3.507Z" fill="#000" fill-opacity=".2"/></svg>