<svg width="20" height="20" fill="none" xmlns="http://www.w3.org/2000/svg"><g clip-path="url(#a)" fill="#000"><path d="M18.207 9.385c.386.345 1.048.368 1.462.046.414-.321.441-.873.055-1.217L10.966.344a.26.26 0 0 0-.07-.057c-.524-.413-1.365-.379-1.848.058L.276 8.214c-.386.344-.359.896.055 1.217.414.322 1.076.299 1.462-.046L10 2.022l8.207 7.363Z"/><path d="M17.931 8.823v8.305c0 .609-.717 1.149-1.655 1.149H3.724c-.938 0-1.655-.54-1.655-1.149V8.8c0-.471-.469-.862-1.035-.862C.47 7.938 0 8.318 0 8.8v8.328C0 18.736 1.697 20 3.724 20h12.552C18.303 20 20 18.736 20 17.128V8.823c0-.471-.469-.862-1.035-.862-.565 0-1.034.39-1.034.862Z"/><path d="M8.276 18.794v-6.847h3.448v7.065h2.069v-7.065c0-.953-.924-1.723-2.069-1.723H8.276c-1.145 0-2.07.77-2.07 1.723v6.847h2.07Z"/></g><defs><clipPath id="a"><path fill="#fff" d="M0 0h20v20H0z"/></clipPath></defs></svg>