<svg width="16" height="20" fill="none" xmlns="http://www.w3.org/2000/svg"><g clip-path="url(#a)" fill="#000"><path d="M0 7.134C0 3.18 3.592 0 8 0c4.408 0 8 3.18 8 7.134 0 2.513-2.323 6.585-6.978 12.385-.434.54-1.239.638-1.807.236a1.372 1.372 0 0 1-.247-.236C2.323 13.72 0 9.647 0 7.134Zm14.452 0c0-3.11-2.88-5.662-6.452-5.662S1.548 4.024 1.548 7.134c0 2.032 2.147 5.83 6.452 11.227 4.305-5.397 6.452-9.195 6.452-11.227Z"/><path d="M8 10.5c-1.848 0-3.355-1.432-3.355-3.189 0-1.757 1.507-3.19 3.355-3.19s3.355 1.433 3.355 3.19-1.507 3.19-3.355 3.19Zm0-1.472c1.001 0 1.807-.765 1.807-1.717C9.807 6.359 9 5.594 8 5.594s-1.806.765-1.806 1.717c0 .952.805 1.717 1.806 1.717Z"/></g><defs><clipPath id="a"><path fill="#fff" d="M0 0h16v20H0z"/></clipPath></defs></svg>