<svg width="16" height="20" fill="none" xmlns="http://www.w3.org/2000/svg"><g clip-path="url(#a)" fill="#000"><path d="M0 7.134C0 3.18 3.592 0 8 0c4.408 0 8 3.18 8 7.134 0 2.513-2.323 6.585-6.978 12.385-.434.54-1.239.638-1.807.236a1.372 1.372 0 0 1-.247-.236C2.323 13.72 0 9.647 0 7.134Zm14.452 0c0-3.11-2.88-5.662-6.452-5.662S1.548 4.024 1.548 7.134c0 2.032 2.147 5.83 6.452 11.227 4.305-5.397 6.452-9.195 6.452-11.227Z"/><path d="M7.68 1 7.525.963s-3.695.117-4.8 2.08C1.61 5.005.021 7.076 1.373 9.942 2.725 12.806 8 19.302 8 19.302s7.267-9.283 7.267-11.472C15.267 5.642 13.12.882 7.68 1ZM8 10.5c-1.848 0-3.355-1.432-3.355-3.189 0-1.757 1.507-3.19 3.355-3.19s3.355 1.433 3.355 3.19-1.507 3.19-3.355 3.19Z"/></g><defs><clipPath id="a"><path fill="#fff" d="M0 0h16v20H0z"/></clipPath></defs></svg>