<svg width="16" height="20" fill="none" xmlns="http://www.w3.org/2000/svg"><g clip-path="url(#a)" fill="#000"><path d="M7.994 9.41c2.523 0 4.57-2.108 4.57-4.705S10.517 0 7.994 0c-2.522 0-4.57 2.108-4.57 4.705S5.472 9.41 7.994 9.41Zm0-1.882c-1.511 0-2.742-1.267-2.742-2.823s1.231-2.823 2.742-2.823 2.742 1.267 2.742 2.823-1.231 2.823-2.742 2.823Zm0 3.062c4.253 0 6.958 2.308 7.945 6.725.268 1.18-.45 2.359-1.608 2.635-.159.037-.317.05-.476.05H2.133C.95 20 0 19.02 0 17.804c0-.163.012-.326.049-.49.987-4.416 3.692-6.724 7.945-6.724Zm0 1.882c-3.388 0-5.374 1.694-6.166 5.257v.075c0 .176.134.314.305.314H13.94a.318.318 0 0 0 .231-.377c-.792-3.575-2.778-5.257-6.166-5.257l-.012-.012Z"/><path d="M8.189 7.742c1.844 0 3.339-1.54 3.339-3.438 0-1.9-1.495-3.438-3.34-3.438-1.843 0-3.338 1.539-3.338 3.438 0 1.898 1.495 3.438 3.339 3.438Zm6.958 10.79c-.475-3.576-3.51-6.336-7.19-6.336-3.68 0-6.714 2.76-7.19 6.336h14.38Z"/></g><defs><clipPath id="a"><path fill="#fff" d="M0 0h16v20H0z"/></clipPath></defs></svg>