<svg xmlns="http://www.w3.org/2000/svg" viewBox="0 0 47.27 42.26"><path d="m31.06 39.53 4.22 2.44c1.06.61 2.42.25 3.04-.81.61-1.06.25-2.42-.81-3.04l-3.7-2.14.15-.26 5.89 3.4c1.06.61 2.42.25 3.04-.81.61-1.06.25-2.42-.81-3.04l-5.89-3.4.15-.26 7.31 4.22c1.06.61 2.42.25 3.04-.81.61-1.06.25-2.42-.81-3.04l-7.31-4.22.15-.26 5.22 3.01c1.06.61 2.42.25 3.04-.81.61-1.06.25-2.42-.81-3.04l-5.74-3.32-3.02-1.74a.604.604 0 0 1 .15-1.11l2.42-.65c1.14-.31 1.97-1.41 1.77-2.57-.23-1.3-1.52-2.1-2.77-1.77l-7.6 2.04c-.43.12-.9.06-1.29-.17L0 0v21.59l24.98 14.42 6.08 3.51Z" style="fill:#ffd6a4;stroke-width:0"/></svg>