<svg width="20" height="20" fill="none" xmlns="http://www.w3.org/2000/svg"><g clip-path="url(#a)" fill="#000"><path d="M10.833 11.005v7.408h6.49c.144 0 .277-.127.277-.265v-7.143h-6.767Zm7.5-4.625h-7.5v3.038h7.5V6.38ZM2.4 11.005v7.143c0 .064.033.127.078.17 0 0 0 .01.01.02a.275.275 0 0 0 .19.075h6.489v-7.408H2.4ZM9.167 6.38h-7.5v3.038h7.5V6.38Z"/><path d="M18.889 4.794h-4.067c-1.133.709-2.478 1.047-3.989 1.005v.582h7.5v3.037l-.122.275c.078-.021.145-.042.222-.042.456 0 .834.36.834.793v.498c.422-.148.733-.53.733-.984V5.862c0-.582-.5-1.058-1.111-1.058v-.01ZM1.567 9.64c.077 0 .144.021.222.042l-.122-.275V6.37h7.5v-.603c-1.667.106-3.134-.212-4.356-.984h-3.7C.5 4.783 0 5.259 0 5.841v4.095c0 .455.311.836.733.985v-.498c0-.434.378-.793.834-.793v.01Z"/><path d="m9.811 5.746-.167.021c-.166.021-.31 0-.466.021v.604h1.666V5.81c-.277 0-.544 0-.822-.032l-.2-.021-.01-.01Zm.011-3.492a4.913 4.913 0 0 0-1.189-1.196C6.811-.254 4.99-.265 3.811.593c-1.322.952-1.3 2.592.667 4.01.11.074.233.127.344.201h4.422c-.122-.931.067-1.788.578-2.54v-.01Zm-4.344 1.08c-1.09-.784-1.1-1.165-.667-1.482.589-.424 1.589-.413 2.811.465.778.561 1.156 1.175 1.156 1.916-1.322.042-2.411-.254-3.311-.91l.01.01Z"/><path d="M9.167 5.778v-.699h.11a2.384 2.384 0 0 1-.044-.296H4.811c1.222.772 2.689 1.1 4.356.984v.01Z"/><path d="m9.811 5.746-.4-.042-.122-.561V5.09h-.111v.698c.155 0 .31 0 .466-.02l.167-.022Zm.589-.952h4.422c.111-.074.234-.117.345-.201 1.955-1.408 1.977-3.059.644-4.011-1.178-.847-2.989-.836-4.811.476-.5.36-.889.762-1.189 1.196.511.751.711 1.608.589 2.54Zm1.611-2.466c1.233-.889 2.222-.889 2.8-.476.444.317.433.698-.644 1.481-.9.646-1.99.953-3.3.91 0-.74.377-1.354 1.155-1.915h-.011ZM10.367 5.09h.466v.709c1.511.042 2.856-.286 3.99-1.005H10.4c-.011.095-.022.19-.045.296h.012Z"/><path d="M10.367 5.09v.053l-.123.56-.422.054.2.02c.29.032.556.022.822.032V5.1h-.466l-.011-.01Zm-1.134-.296H10.4c.122-.932-.078-1.789-.589-2.54a3.509 3.509 0 0 0-.578 2.54Zm1.167 0H9.233c.012.095.023.19.045.296h1.078a2.39 2.39 0 0 0 .044-.296Z"/><path d="m9.411 5.704.4.042.422-.053.123-.56v-.054H9.278v.053l.122.561.011.01Zm8.189 5.301v7.143a.269.269 0 0 1-.278.265h-6.489v.793H9.167v-.793h-6.49s-.132-.021-.188-.074c0 0 0-.01-.011-.021a.226.226 0 0 1-.078-.17v-7.132H1.111a1.14 1.14 0 0 1-.378-.074v7.217c0 1.026.867 1.852 1.945 1.852h14.644c1.078 0 1.945-.826 1.945-1.852v-7.217a1.14 1.14 0 0 1-.378.074H17.6v-.01ZM2.678 18.413Z"/><path d="M2.478 18.317s-.078-.105-.078-.169c0 .074.033.127.078.17ZM2.4 11.005l-.61-1.312a.75.75 0 0 0-.222-.042c-.456 0-.834.36-.834.793v.498c.123.042.245.074.378.074h1.29v-.01ZM18.433 9.64a.75.75 0 0 0-.222.043l-.61 1.312h1.288c.133 0 .256-.032.378-.074v-.498c0-.434-.378-.793-.834-.793v.01ZM2.4 10.434c0-.36-.267-.656-.611-.751l.61 1.312v-.561Z"/><path d="M17.6 10.434v.56l.611-1.311c-.344.095-.61.391-.61.75Zm-8.433 8.772h1.666v-.793H9.167v.793Z"/></g><defs><clipPath id="a"><path fill="#fff" d="M0 0h20v20H0z"/></clipPath></defs></svg>