<svg width="20" height="20" fill="none" xmlns="http://www.w3.org/2000/svg"><g clip-path="url(#a)" fill="#000"><path d="M1.111 4.794H18.89c.61 0 1.11.476 1.11 1.058v4.095c0 .582-.5 1.058-1.111 1.058H1.11C.5 11.005 0 10.53 0 9.947V5.852c0-.582.5-1.058 1.111-1.058Zm.556 1.587v3.037h16.666V6.381H1.667Z"/><path d="M9.167 5.09v14.116h1.666V5.09H9.167Z"/><path d="m10.356 5.132-.123.561-.6.064c-2.022.232-3.766-.16-5.166-1.164C2.51 3.185 2.477 1.545 3.8.582c1.189-.857 3.011-.847 4.822.466 1.467 1.058 2.067 2.465 1.723 4.084h.01Zm-1.567-.9c0-.74-.378-1.354-1.156-1.915-1.222-.878-2.222-.888-2.81-.465-.434.317-.423.698.666 1.481.9.646 1.989.953 3.311.91l-.011-.01Z"/><path d="m10.011 5.767-.6-.063-.122-.561c-.356-1.62.244-3.027 1.71-4.085 1.823-1.312 3.634-1.323 4.812-.476 1.333.952 1.311 2.603-.645 4.01-1.4 1.006-3.133 1.397-5.155 1.175Zm4.155-2.434c1.078-.783 1.09-1.164.645-1.481-.578-.413-1.567-.413-2.8.476-.778.56-1.144 1.175-1.156 1.915 1.323.043 2.412-.264 3.3-.91h.011ZM.733 10.434v7.704c0 1.026.867 1.851 1.945 1.851h14.644c1.078 0 1.945-.825 1.945-1.852v-7.703c0-.434-.378-.794-.834-.794-.455 0-.833.36-.833.794v7.704a.269.269 0 0 1-.278.264H2.678a.269.269 0 0 1-.278-.265v-7.703c0-.434-.378-.794-.833-.794-.456 0-.834.36-.834.794Z"/></g><defs><clipPath id="a"><path fill="#fff" d="M0 0h20v20H0z"/></clipPath></defs></svg>