<svg width="45" height="44" fill="none" xmlns="http://www.w3.org/2000/svg"><path fill-rule="evenodd" clip-rule="evenodd" d="M28.03 2.343a8 8 0 0 0-11.314 0L3.029 16.03a8 8 0 0 0 0 11.314L16.716 41.03a8 8 0 0 0 11.313 0l13.687-13.686a8 8 0 0 0 0-11.314L28.029 2.343Zm-9.16 16.234 3.63-3.063a3.5 3.5 0 0 1 2.25-.828c.683 0 1.354.203 1.928.586L29.4 17.09l.146.098h.027v7.375l-5.213-5 .784-.633a.642.642 0 0 0 .105-.88.586.586 0 0 0-.844-.108l-3.724 3.015a1.417 1.417 0 0 1-2.073-.304 1.561 1.561 0 0 1 .262-2.075Zm2.546 3.368 1.94-1.57 5.032 4.805c.73.699.78 1.886.108 2.648-.61.696-1.6.801-2.328.293a1.91 1.91 0 0 1-.372.645 1.75 1.75 0 0 1-2.542.113l-.638-.61c-.07.29-.21.567-.416.805a1.748 1.748 0 0 1-2.542.121l-3.428-3.258h-1.057v-8.75l2.7-1.876a3.448 3.448 0 0 1 3.36-.332l-3.12 2.63c-1.1.925-1.31 2.59-.477 3.781.885 1.266 2.6 1.516 3.78.555Zm-11.043-4.133c0-.344.27-.626.6-.626h3v8.751c0 .692-.537 1.25-1.2 1.25h-1.2c-.664 0-1.2-.558-1.2-1.25v-8.125Zm2.224 7.058a.588.588 0 0 0-.424-.183.588.588 0 0 0-.425.183.639.639 0 0 0-.175.442.64.64 0 0 0 .175.442.588.588 0 0 0 .425.183.59.59 0 0 0 .424-.183.639.639 0 0 0 .176-.442.639.639 0 0 0-.176-.442Zm18.176 1.067v-8.75h3c.33 0 .6.28.6.625v8.125c0 .692-.537 1.25-1.2 1.25h-1.2c-.664 0-1.2-.558-1.2-1.25Zm1.375-1.067a.639.639 0 0 0-.175.442.64.64 0 0 0 .175.442.588.588 0 0 0 .425.183.59.59 0 0 0 .424-.183.638.638 0 0 0 .176-.442.638.638 0 0 0-.176-.442.588.588 0 0 0-.424-.183.588.588 0 0 0-.425.183Z" fill="#161616"/><path fill-rule="evenodd" clip-rule="evenodd" d="M28.03 2.343a8 8 0 0 0-11.314 0L3.029 16.03a8 8 0 0 0 0 11.314L16.716 41.03a8 8 0 0 0 11.313 0l13.687-13.686a8 8 0 0 0 0-11.314L28.029 2.343Zm-9.16 16.234 3.63-3.063a3.5 3.5 0 0 1 2.25-.828c.683 0 1.354.203 1.928.586L29.4 17.09l.146.098h.027v7.375l-5.213-5 .784-.633a.642.642 0 0 0 .105-.88.586.586 0 0 0-.844-.108l-3.724 3.015a1.417 1.417 0 0 1-2.073-.304 1.561 1.561 0 0 1 .262-2.075Zm2.546 3.368 1.94-1.57 5.032 4.805c.73.699.78 1.886.108 2.648-.61.696-1.6.801-2.328.293a1.91 1.91 0 0 1-.372.645 1.75 1.75 0 0 1-2.542.113l-.638-.61c-.07.29-.21.567-.416.805a1.748 1.748 0 0 1-2.542.121l-3.428-3.258h-1.057v-8.75l2.7-1.876a3.448 3.448 0 0 1 3.36-.332l-3.12 2.63c-1.1.925-1.31 2.59-.477 3.781.885 1.266 2.6 1.516 3.78.555Zm-11.043-4.133c0-.344.27-.626.6-.626h3v8.751c0 .692-.537 1.25-1.2 1.25h-1.2c-.664 0-1.2-.558-1.2-1.25v-8.125Zm2.224 7.058a.588.588 0 0 0-.424-.183.588.588 0 0 0-.425.183.639.639 0 0 0-.175.442.64.64 0 0 0 .175.442.588.588 0 0 0 .425.183.59.59 0 0 0 .424-.183.639.639 0 0 0 .176-.442.639.639 0 0 0-.176-.442Zm18.176 1.067v-8.75h3c.33 0 .6.28.6.625v8.125c0 .692-.537 1.25-1.2 1.25h-1.2c-.664 0-1.2-.558-1.2-1.25Zm1.375-1.067a.639.639 0 0 0-.175.442.64.64 0 0 0 .175.442.588.588 0 0 0 .425.183.59.59 0 0 0 .424-.183.638.638 0 0 0 .176-.442.638.638 0 0 0-.176-.442.588.588 0 0 0-.424-.183.588.588 0 0 0-.425.183Z" fill="#000" fill-opacity=".2"/></svg>