<svg width="20" height="20" viewBox="0 0 20 20" fill="none" xmlns="http://www.w3.org/2000/svg">
<path d="M16.9713 7H15.3148C15.0646 3.64 12.7646 1 9.97611 1C7.18757 1 4.88763 3.64 4.63737 7H2.98094C2.52142 6.99973 2.06808 7.1065 1.65635 7.31196C1.24462 7.51743 0.885666 7.81601 0.607563 8.18437C0.329461 8.55272 0.139745 8.98087 0.0532519 9.43532C-0.0332411 9.88977 -0.014167 10.3582 0.108983 10.804L1.76542 16.804C1.94172 17.4348 2.31752 17.9905 2.83581 18.3868C3.3541 18.7831 3.9866 18.9984 4.63737 19H15.3625C16.0133 18.9984 16.6458 18.7831 17.1641 18.3868C17.6824 17.9905 18.0582 17.4348 18.2345 16.804L19.8909 10.804C20.0152 10.3543 20.0336 9.88154 19.9445 9.42341C19.8555 8.96528 19.6615 8.53439 19.378 8.16503C19.0945 7.79567 18.7294 7.49802 18.3115 7.29577C17.8937 7.09352 17.4348 6.99224 16.9713 7ZM9.97611 2.2C12.1211 2.2 13.8729 4.312 14.0993 7H5.85289C6.07931 4.312 7.83108 2.2 9.97611 2.2ZM18.6873 10.48L17.0428 16.48C16.9365 16.8593 16.7103 17.1934 16.3985 17.4316C16.0867 17.6698 15.7062 17.7991 15.3148 17.8H4.58971C4.19831 17.7991 3.81787 17.6698 3.50605 17.4316C3.19423 17.1934 2.96804 16.8593 2.86177 16.48L1.21725 10.48C1.14032 10.2129 1.12721 9.93122 1.17899 9.65802C1.23076 9.38482 1.34596 9.12782 1.51517 8.908C1.68106 8.68759 1.89547 8.50893 2.14154 8.38608C2.38761 8.26323 2.65862 8.19953 2.93327 8.2H16.9713C17.2459 8.19953 17.5169 8.26323 17.763 8.38608C18.0091 8.50893 18.2235 8.68759 18.3894 8.908C18.5586 9.12782 18.6738 9.38482 18.7256 9.65802C18.7773 9.93122 18.7642 10.2129 18.6873 10.48Z" fill="black"/>
<path d="M9.97136 10.8C9.78172 10.8 9.59986 10.8633 9.46577 10.9758C9.33168 11.0883 9.25635 11.2409 9.25635 11.4V15C9.25635 15.1592 9.33168 15.3118 9.46577 15.4243C9.59986 15.5368 9.78172 15.6 9.97136 15.6C10.161 15.6 10.3429 15.5368 10.4769 15.4243C10.611 15.3118 10.6864 15.1592 10.6864 15V11.4C10.6864 11.2409 10.611 11.0883 10.4769 10.9758C10.3429 10.8633 10.161 10.8 9.97136 10.8Z" fill="black"/>
<path d="M14.2614 10.8C14.0718 10.8 13.8899 10.8633 13.7558 10.9758C13.6217 11.0883 13.5464 11.2409 13.5464 11.4V15C13.5464 15.1592 13.6217 15.3118 13.7558 15.4243C13.8899 15.5368 14.0718 15.6 14.2614 15.6C14.451 15.6 14.6329 15.5368 14.767 15.4243C14.9011 15.3118 14.9764 15.1592 14.9764 15V11.4C14.9764 11.2409 14.9011 11.0883 14.767 10.9758C14.6329 10.8633 14.451 10.8 14.2614 10.8Z" fill="black"/>
<path d="M5.68132 10.8C5.49169 10.8 5.30982 10.8633 5.17573 10.9758C5.04164 11.0883 4.96631 11.2409 4.96631 11.4V15C4.96631 15.1592 5.04164 15.3118 5.17573 15.4243C5.30982 15.5368 5.49169 15.6 5.68132 15.6C5.87095 15.6 6.05282 15.5368 6.18691 15.4243C6.321 15.3118 6.39633 15.1592 6.39633 15V11.4C6.39633 11.2409 6.321 11.0883 6.18691 10.9758C6.05282 10.8633 5.87095 10.8 5.68132 10.8Z" fill="black"/>
</svg>
