<svg width="16" height="20" viewBox="0 0 16 20" fill="none" xmlns="http://www.w3.org/2000/svg">
<g id="placeOn_icon 1" clip-path="url(#clip0_71_613)">
<path id="Vector" d="M0 7.13445C0 3.17959 3.59226 0 8 0C12.4077 0 16 3.17959 16 7.13445C16 9.64671 13.6774 13.7193 9.02193 19.5191C8.58839 20.0589 7.78323 20.157 7.21548 19.7547C7.12258 19.686 7.04 19.6075 6.96774 19.5191C2.32258 13.7193 0 9.64671 0 7.13445ZM14.4516 7.13445C14.4516 4.02355 11.5716 1.47203 8 1.47203C4.42839 1.47203 1.54839 4.02355 1.54839 7.13445C1.54839 9.16585 3.69548 12.9637 8 18.3611C12.3045 12.9637 14.4516 9.16585 14.4516 7.13445Z" fill="black"/>
<path id="Vector_2" d="M7.6801 1.00092L7.52526 0.96167C7.52526 0.96167 3.82977 1.07943 2.72526 3.04214C1.61042 5.00485 0.0207417 7.07551 1.373 9.94106C2.72526 12.8066 8.0001 19.3032 8.0001 19.3032C8.0001 19.3032 15.2672 10.0196 15.2672 7.83115C15.2672 5.64273 13.1201 0.883162 7.6801 1.00092ZM8.0001 10.5004C6.15236 10.5004 4.64526 9.06766 4.64526 7.31103C4.64526 5.55441 6.15236 4.12163 8.0001 4.12163C9.84784 4.12163 11.3549 5.55441 11.3549 7.31103C11.3549 9.06766 9.84784 10.5004 8.0001 10.5004Z" fill="black"/>
</g>
<defs>
<clipPath id="clip0_71_613">
<rect width="16" height="20" fill="white"/>
</clipPath>
</defs>
</svg>
