<svg width="20" height="20" viewBox="0 0 20 20" fill="none" xmlns="http://www.w3.org/2000/svg">
<g id="shopOn_icon" clip-path="url(#clip0_71_576)">
<path id="Vector" d="M10.8333 11.0054V18.4128H17.3221C17.4666 18.4128 17.5999 18.2858 17.5999 18.1482V17.799C17.5999 16.3705 17.5999 11.0794 17.5999 11.0054H10.8333Z" fill="black"/>
<path id="Vector_2" d="M18.3333 6.38086H10.8333V9.4179H18.3333V6.38086Z" fill="black"/>
<path id="Vector_3" d="M2.3999 11.0054V18.1482C2.3999 18.2117 2.43324 18.2752 2.47768 18.3175C2.47768 18.3175 2.47768 18.3281 2.48879 18.3387C2.53324 18.381 2.5999 18.4128 2.67768 18.4128H9.16657V11.0054H2.3999Z" fill="black"/>
<path id="Vector_4" d="M9.16675 6.38086H1.66675V9.4179H9.16675V6.38086Z" fill="black"/>
<path id="Vector_5" d="M18.8888 4.7937H14.8221C13.6888 5.5027 12.3444 5.84132 10.8333 5.79899V6.381H18.3333V9.41804L18.211 9.69317C18.2888 9.67201 18.3555 9.65084 18.4333 9.65084C18.8888 9.65084 19.2666 10.0106 19.2666 10.4445V10.9418C19.6888 10.7937 19.9999 10.4127 19.9999 9.95772V5.86248C19.9999 5.28047 19.4999 4.80428 18.8888 4.80428V4.7937Z" fill="black"/>
<path id="Vector_6" d="M1.56667 9.6401C1.64444 9.6401 1.71111 9.66127 1.78889 9.68243L1.66667 9.4073V6.37026H9.16667V5.76709C7.5 5.87291 6.03333 5.55545 4.81111 4.78296H1.11111C0.5 4.78296 0 5.25915 0 5.84116V9.9364C0 10.3914 0.311111 10.7724 0.733333 10.9205V10.4232C0.733333 9.98931 1.11111 9.62952 1.56667 9.62952V9.6401Z" fill="black"/>
<path id="Vector_7" d="M9.81107 5.74609L9.6444 5.76726C9.47773 5.78842 9.33329 5.76726 9.17773 5.78842V6.3916H10.8444V5.80959C10.5666 5.80959 10.3 5.80959 10.0222 5.77784L9.82218 5.75668L9.81107 5.74609Z" fill="black"/>
<path id="Vector_8" d="M9.82219 2.25389C9.52219 1.82003 9.1333 1.41791 8.6333 1.05812C6.81108 -0.254047 4.98885 -0.264629 3.81108 0.592514C2.48885 1.54489 2.51108 3.18511 4.47774 4.6031C4.58885 4.67717 4.71108 4.73008 4.82219 4.80415H9.24441C9.12219 3.87294 9.31108 3.01579 9.82219 2.26447V2.25389ZM5.47774 3.33325C4.38885 2.55019 4.37774 2.16923 4.81108 1.85177C5.39996 1.42849 6.39996 1.43907 7.62219 2.31738C8.39996 2.87823 8.77774 3.49198 8.77774 4.23273C7.45552 4.27505 6.36663 3.97876 5.46663 3.32267L5.47774 3.33325Z" fill="black"/>
<path id="Vector_9" d="M9.16659 5.77767V5.07926H9.2777C9.25548 4.98402 9.24437 4.88878 9.23326 4.78296H4.81104C6.03326 5.55545 7.49992 5.88349 9.16659 5.76709V5.77767Z" fill="black"/>
<path id="Vector_10" d="M9.81107 5.74593L9.41107 5.7036L9.28884 5.14275C9.28884 5.14275 9.28884 5.11101 9.28884 5.08984H9.17773V5.78826C9.33329 5.78826 9.48885 5.78826 9.6444 5.76709L9.81107 5.74593Z" fill="black"/>
<path id="Vector_11" d="M10.3999 4.79368H14.8221C14.9333 4.71961 15.0555 4.67728 15.1666 4.59263C17.1221 3.18522 17.1444 1.53442 15.811 0.582044C14.6333 -0.264517 12.8221 -0.253935 10.9999 1.05823C10.4999 1.41802 10.111 1.82014 9.81104 2.254C10.3221 3.00532 10.5221 3.86247 10.3999 4.79368ZM12.011 2.32808C13.2444 1.43919 14.2333 1.43919 14.811 1.85189C15.2555 2.16935 15.2444 2.5503 14.1666 3.33337C13.2666 3.97887 12.1777 4.28575 10.8666 4.24342C10.8666 3.50268 11.2444 2.88892 12.0221 2.32808H12.011Z" fill="black"/>
<path id="Vector_12" d="M10.3666 5.09H10.8332V5.79899C12.3444 5.84132 13.6888 5.51328 14.8221 4.7937H10.3999C10.3888 4.88894 10.3777 4.98418 10.3555 5.09H10.3666Z" fill="black"/>
<path id="Vector_13" d="M10.3667 5.08984C10.3667 5.08984 10.3667 5.12159 10.3667 5.14275L10.2445 5.7036L9.82227 5.75651L10.0223 5.77767C10.3112 5.80942 10.5778 5.79884 10.8445 5.80942V5.10043H10.3778L10.3667 5.08984Z" fill="black"/>
<path id="Vector_14" d="M9.23329 4.79359H10.4C10.5222 3.86237 10.3222 3.00523 9.81107 2.25391C9.29996 3.00523 9.09996 3.86237 9.23329 4.79359Z" fill="black"/>
<path id="Vector_15" d="M10.4001 4.7937H9.2334C9.24451 4.88894 9.25562 4.98418 9.27784 5.09H10.3556C10.3778 4.99476 10.389 4.89952 10.4001 4.7937Z" fill="black"/>
<path id="Vector_16" d="M9.41117 5.70368L9.81116 5.74601L10.2334 5.6931L10.3556 5.13226C10.3556 5.13226 10.3556 5.10051 10.3556 5.07935H9.27783C9.27783 5.07935 9.27783 5.11109 9.27783 5.13226L9.40005 5.6931L9.41117 5.70368Z" fill="black"/>
<path id="Vector_17" d="M17.6001 11.0054V18.1482C17.6001 18.2964 17.4778 18.4128 17.3223 18.4128H10.8334V19.2064H9.16673V18.4128H2.67784C2.67784 18.4128 2.54451 18.3916 2.48895 18.3387C2.48895 18.3387 2.48895 18.3281 2.47784 18.3176C2.4334 18.2752 2.40006 18.2223 2.40006 18.1482V11.016H1.11118C0.977843 11.016 0.855621 10.9842 0.733398 10.9419V18.1588C0.733398 19.1853 1.60006 20.0107 2.67784 20.0107H17.3223C18.4001 20.0107 19.2667 19.1853 19.2667 18.1588V10.9419C19.1445 10.9842 19.0223 11.016 18.889 11.016H17.6001V11.0054Z" fill="black"/>
<path id="Vector_18" d="M2.67766 18.4127C2.59988 18.4127 2.54433 18.381 2.48877 18.3386C2.54433 18.3915 2.6221 18.4127 2.67766 18.4127Z" fill="black"/>
<path id="Vector_19" d="M2.47768 18.3175C2.47768 18.3175 2.3999 18.2117 2.3999 18.1482C2.3999 18.2223 2.43324 18.2752 2.47768 18.3175Z" fill="black"/>
<path id="Vector_20" d="M2.40006 11.0054L1.78895 9.69321C1.72229 9.67204 1.64451 9.65088 1.56673 9.65088C1.11118 9.65088 0.733398 10.0107 0.733398 10.4445V10.9419C0.855621 10.9842 0.977843 11.016 1.11118 11.016H2.40006V11.0054Z" fill="black"/>
<path id="Vector_21" d="M18.4334 9.64022C18.3557 9.64022 18.2779 9.66138 18.2112 9.68255L17.6001 10.9947H18.889C19.0223 10.9947 19.1445 10.963 19.2668 10.9206V10.4233C19.2668 9.98943 18.889 9.62964 18.4334 9.62964V9.64022Z" fill="black"/>
<path id="Vector_22" d="M2.39993 10.4339C2.39993 10.0742 2.13326 9.77786 1.78882 9.68262L2.39993 10.9948V10.4339Z" fill="black"/>
<path id="Vector_23" d="M17.6001 10.4339V10.9948L18.2112 9.68262C17.8668 9.77786 17.6001 10.0742 17.6001 10.4339Z" fill="black"/>
<path id="Vector_24" d="M9.16675 19.2062H10.8334V18.4126H9.16675V19.2062Z" fill="black"/>
</g>
<defs>
<clipPath id="clip0_71_576">
<rect width="20" height="20" fill="white"/>
</clipPath>
</defs>
</svg>
