<svg width="20" height="20" viewBox="0 0 20 20" fill="none" xmlns="http://www.w3.org/2000/svg">
<g id="shopOff_icon" clip-path="url(#clip0_71_569)">
<path id="Vector" d="M1.11111 4.7937H18.8889C19.5 4.7937 20 5.26989 20 5.8519V9.94714C20 10.5292 19.5 11.0053 18.8889 11.0053H1.11111C0.5 11.0053 0 10.5292 0 9.94714V5.8519C0 5.26989 0.5 4.7937 1.11111 4.7937ZM1.66667 6.381V9.41804H18.3333V6.381H1.66667Z" fill="black"/>
<path id="Vector_2" d="M9.16675 5.08984V19.2062H10.8334V5.08984H9.16675Z" fill="black"/>
<path id="Vector_3" d="M10.3556 5.13228L10.2334 5.69313L9.63341 5.75662C7.61118 5.98942 5.86674 5.59789 4.46674 4.5926C2.51118 3.18519 2.47785 1.54498 3.80007 0.582016C4.98896 -0.275127 6.81118 -0.264545 8.62229 1.04762C10.089 2.10582 10.689 3.51323 10.3445 5.13228H10.3556ZM8.78896 4.23281C8.78896 3.49207 8.41118 2.87831 7.63341 2.31747C6.41118 1.43916 5.41118 1.42858 4.82229 1.85186C4.38896 2.16932 4.40007 2.55027 5.48896 3.33334C6.38896 3.97884 7.47785 4.28572 8.80007 4.24339L8.78896 4.23281Z" fill="black"/>
<path id="Vector_4" d="M10.011 5.76723L9.41099 5.70374L9.28877 5.14289C8.93321 3.52384 9.53321 2.11644 10.9999 1.05823C12.8221 -0.253935 14.6332 -0.264517 15.811 0.582044C17.1443 1.53442 17.1221 3.18522 15.1665 4.59263C13.7665 5.59792 12.0332 5.98945 10.011 5.76723ZM14.1665 3.33337C15.2443 2.5503 15.2554 2.16935 14.811 1.85189C14.2332 1.43919 13.2443 1.43919 12.011 2.32808C11.2332 2.88892 10.8665 3.50268 10.8554 4.24342C12.1777 4.28575 13.2665 3.97887 14.1554 3.33337H14.1665Z" fill="black"/>
<path id="Vector_5" d="M0.733398 10.4338V18.1375C0.733398 19.1639 1.60006 19.9893 2.67784 19.9893H17.3223C18.4001 19.9893 19.2667 19.1639 19.2667 18.1375V10.4338C19.2667 9.99993 18.889 9.64014 18.4334 9.64014C17.9778 9.64014 17.6001 9.99993 17.6001 10.4338V18.1375C17.6001 18.2856 17.4778 18.402 17.3223 18.402H2.67784C2.52229 18.402 2.40006 18.2856 2.40006 18.1375V10.4338C2.40006 9.99993 2.02229 9.64014 1.56673 9.64014C1.11118 9.64014 0.733398 9.99993 0.733398 10.4338Z" fill="black"/>
</g>
<defs>
<clipPath id="clip0_71_569">
<rect width="20" height="20" fill="white"/>
</clipPath>
</defs>
</svg>
