<svg width="44" height="44" viewBox="0 0 44 44" fill="none" xmlns="http://www.w3.org/2000/svg">
<path fill-rule="evenodd" clip-rule="evenodd" d="M27.3431 2.34315C24.2189 -0.781047 19.1536 -0.78105 16.0294 2.34314L2.34315 16.0294C-0.781047 19.1536 -0.781049 24.2189 2.34314 27.3431L16.0294 41.0294C19.1536 44.1536 24.2189 44.1536 27.3431 41.0294L41.0294 27.3431C44.1536 24.2189 44.1536 19.1536 41.0294 16.0294L27.3431 2.34315ZM13.6865 15.353C13.6865 13.4207 15.2222 11.853 17.1151 11.853H27.4007H28.5435C29.1757 11.853 29.6864 12.3744 29.6864 13.0197V24.6863C29.6864 25.3316 29.1757 25.8529 28.5435 25.8529V28.1862C29.1757 28.1862 29.6864 28.7076 29.6864 29.3529C29.6864 29.9982 29.1757 30.5195 28.5435 30.5195H27.4007H17.1151C15.2222 30.5195 13.6865 28.9519 13.6865 27.0196V15.353ZM26.2578 25.8529H17.1151C16.4829 25.8529 15.9722 26.3743 15.9722 27.0196C15.9722 27.6649 16.4829 28.1862 17.1151 28.1862H26.2578V25.8529ZM18.8293 16.5197C18.5151 16.5197 18.2579 16.7822 18.2579 17.103C18.2579 17.4238 18.5151 17.6863 18.8293 17.6863H25.6864C26.0007 17.6863 26.2578 17.4238 26.2578 17.103C26.2578 16.7822 26.0007 16.5197 25.6864 16.5197H18.8293ZM25.6864 18.853H18.8293C18.5151 18.853 18.2579 19.1155 18.2579 19.4363C18.2579 19.7571 18.5151 20.0196 18.8293 20.0196H25.6864C26.0007 20.0196 26.2578 19.7571 26.2578 19.4363C26.2578 19.1155 26.0007 18.853 25.6864 18.853Z" fill="#161616"/>
<path fill-rule="evenodd" clip-rule="evenodd" d="M27.3431 2.34315C24.2189 -0.781047 19.1536 -0.78105 16.0294 2.34314L2.34315 16.0294C-0.781047 19.1536 -0.781049 24.2189 2.34314 27.3431L16.0294 41.0294C19.1536 44.1536 24.2189 44.1536 27.3431 41.0294L41.0294 27.3431C44.1536 24.2189 44.1536 19.1536 41.0294 16.0294L27.3431 2.34315ZM13.6865 15.353C13.6865 13.4207 15.2222 11.853 17.1151 11.853H27.4007H28.5435C29.1757 11.853 29.6864 12.3744 29.6864 13.0197V24.6863C29.6864 25.3316 29.1757 25.8529 28.5435 25.8529V28.1862C29.1757 28.1862 29.6864 28.7076 29.6864 29.3529C29.6864 29.9982 29.1757 30.5195 28.5435 30.5195H27.4007H17.1151C15.2222 30.5195 13.6865 28.9519 13.6865 27.0196V15.353ZM26.2578 25.8529H17.1151C16.4829 25.8529 15.9722 26.3743 15.9722 27.0196C15.9722 27.6649 16.4829 28.1862 17.1151 28.1862H26.2578V25.8529ZM18.8293 16.5197C18.5151 16.5197 18.2579 16.7822 18.2579 17.103C18.2579 17.4238 18.5151 17.6863 18.8293 17.6863H25.6864C26.0007 17.6863 26.2578 17.4238 26.2578 17.103C26.2578 16.7822 26.0007 16.5197 25.6864 16.5197H18.8293ZM25.6864 18.853H18.8293C18.5151 18.853 18.2579 19.1155 18.2579 19.4363C18.2579 19.7571 18.5151 20.0196 18.8293 20.0196H25.6864C26.0007 20.0196 26.2578 19.7571 26.2578 19.4363C26.2578 19.1155 26.0007 18.853 25.6864 18.853Z" fill="black" fill-opacity="0.2"/>
</svg>
