<svg width="20" height="20" viewBox="0 0 20 20" fill="none" xmlns="http://www.w3.org/2000/svg">
<path d="M8.1677 18.2114C9.64984 19.3611 11.47 19.9898 13.3459 20C14.4435 20.0007 15.5306 19.7853 16.5449 19.3659C17.5592 18.9466 18.481 18.3316 19.2575 17.556C19.7332 17.0755 20 16.4268 20 15.7508C20 15.0748 19.7332 14.4261 19.2575 13.9456L17.8351 12.5347C17.2815 11.9844 16.5649 11.6276 15.792 11.5175C15.0191 11.4074 14.2313 11.5499 13.5459 11.9237C13.0755 12.1856 12.5325 12.2871 11.9992 12.2129C11.4659 12.1388 10.9712 11.893 10.5901 11.5127L8.48995 9.41311C8.10688 9.03164 7.85847 8.53585 7.78229 8.0007C7.7061 7.46556 7.80629 6.92016 8.06769 6.447C8.44661 5.76394 8.59299 4.9762 8.48475 4.20267C8.3765 3.42914 8.01951 2.7118 7.46764 2.15892L6.35644 1.04802C5.83164 0.459818 5.10688 0.0876353 4.32295 0.00376965C3.97763 -0.0152964 3.63214 0.0381127 3.30871 0.160561C2.98529 0.28301 2.69108 0.471787 2.44502 0.714747C0.990112 2.17161 0.123664 4.11367 0.0114863 6.16927C-0.0945568 8.20984 0.536425 10.2206 1.78941 11.8349C3.64885 14.2112 5.7907 16.3525 8.1677 18.2114Z" fill="black"/>
</svg>
