<?xml version="1.0" encoding="UTF-8"?><svg id="_레이어_1" xmlns="http://www.w3.org/2000/svg" viewBox="0 0 42.41 40.21"><defs><style>.cls-1{fill:#fff;}.cls-1,.cls-2{stroke-width:0px;}.cls-2{fill:#ff9f9f;}</style></defs><path class="cls-1" d="m18.47,4.81s-.04-.03-.06-.04L10.86.41c-1.45-.84-3.3-.34-4.14,1.11l-.03.05c-.84,1.45-.34,3.3,1.11,4.14l.13.07-.08.13-2.26-1.3c-1.45-.84-3.3-.34-4.14,1.11l-.03.05c-.84,1.45-.34,3.3,1.11,4.14l2.26,1.3-.1.18-.13-.07c-1.45-.84-3.3-.34-4.14,1.11l-.03.05c-.84,1.45-.34,3.3,1.11,4.14l.13.07,7.42,4.28,33.35,19.25v-21.58L18.47,4.81Z"/><rect class="cls-2" x="4.19" y="13.06" width="2.5" height="2.5" rx="1.25" ry="1.25" transform="translate(3 29.43) rotate(-150)"/><rect class="cls-2" x="4.73" y="7.13" width="2.5" height="2.5" rx="1.25" ry="1.25" transform="translate(6.97 18.63) rotate(-150)"/><rect class="cls-2" x="9.6" y="3.7" width="2.5" height="2.5" rx="1.25" ry="1.25" transform="translate(17.76 14.67) rotate(-150)"/><path class="cls-2" d="m11.01,17.1c1.38.76,2.64-.12,3.09-.88s-.18-1.92.4-2.92,1.89-1.04,2.33-1.81.57-2.29-.78-3.11-6.02-1.57-7.72,1.36,1.29,6.61,2.68,7.36Z"/></svg>