<svg width="44" height="44" viewBox="0 0 44 44" fill="none" xmlns="http://www.w3.org/2000/svg">
<path fill-rule="evenodd" clip-rule="evenodd" d="M27.9706 2.34315C24.8464 -0.781047 19.7811 -0.78105 16.6569 2.34314L2.97059 16.0294C-0.153605 19.1536 -0.153608 24.2189 2.97059 27.3431L16.6569 41.0294C19.7811 44.1536 24.8464 44.1536 27.9706 41.0294L41.6569 27.3431C44.7811 24.2189 44.7811 19.1536 41.6569 16.0294L27.9706 2.34315ZM17.5739 10.5264C16.4509 11.6466 16.4509 13.466 17.5739 14.5862L21.4545 18.4655C21.6913 18.7023 22.0006 18.8188 22.3138 18.8188C22.627 18.8188 22.9364 18.7023 23.1732 18.4655L27.0538 14.5862C28.1768 13.466 28.1768 11.6466 27.0538 10.5264C25.9309 9.40625 24.1128 9.40625 22.9899 10.5264L22.3138 11.2031L21.6378 10.5264C20.5149 9.40625 18.6968 9.40625 17.5739 10.5264ZM32.6914 24.183C33.3713 23.6905 33.5164 22.7508 33.016 22.0817C32.5157 21.4126 31.5608 21.2697 30.881 21.7622L26.309 25.0776H21.7027C21.3666 25.0776 21.0916 24.807 21.0916 24.4762C21.0916 24.1454 21.3666 23.8747 21.7027 23.8747H22.3138H24.7583C25.4344 23.8747 25.9806 23.3372 25.9806 22.6719C25.9806 22.0065 25.4344 21.469 24.7583 21.469H22.3138H21.7027H18.7121C17.6006 21.469 16.5235 21.8373 15.6565 22.5215L13.9415 23.8747H12.536C11.8599 23.8747 11.3137 24.4123 11.3137 25.0776V27.4834C11.3137 28.1488 11.8599 28.6863 12.536 28.6863H18.6471H24.7736C25.8851 28.6863 26.9622 28.3367 27.8559 27.6902L32.6914 24.183Z" fill="#161616"/>
<path fill-rule="evenodd" clip-rule="evenodd" d="M27.9706 2.34315C24.8464 -0.781047 19.7811 -0.78105 16.6569 2.34314L2.97059 16.0294C-0.153605 19.1536 -0.153608 24.2189 2.97059 27.3431L16.6569 41.0294C19.7811 44.1536 24.8464 44.1536 27.9706 41.0294L41.6569 27.3431C44.7811 24.2189 44.7811 19.1536 41.6569 16.0294L27.9706 2.34315ZM17.5739 10.5264C16.4509 11.6466 16.4509 13.466 17.5739 14.5862L21.4545 18.4655C21.6913 18.7023 22.0006 18.8188 22.3138 18.8188C22.627 18.8188 22.9364 18.7023 23.1732 18.4655L27.0538 14.5862C28.1768 13.466 28.1768 11.6466 27.0538 10.5264C25.9309 9.40625 24.1128 9.40625 22.9899 10.5264L22.3138 11.2031L21.6378 10.5264C20.5149 9.40625 18.6968 9.40625 17.5739 10.5264ZM32.6914 24.183C33.3713 23.6905 33.5164 22.7508 33.016 22.0817C32.5157 21.4126 31.5608 21.2697 30.881 21.7622L26.309 25.0776H21.7027C21.3666 25.0776 21.0916 24.807 21.0916 24.4762C21.0916 24.1454 21.3666 23.8747 21.7027 23.8747H22.3138H24.7583C25.4344 23.8747 25.9806 23.3372 25.9806 22.6719C25.9806 22.0065 25.4344 21.469 24.7583 21.469H22.3138H21.7027H18.7121C17.6006 21.469 16.5235 21.8373 15.6565 22.5215L13.9415 23.8747H12.536C11.8599 23.8747 11.3137 24.4123 11.3137 25.0776V27.4834C11.3137 28.1488 11.8599 28.6863 12.536 28.6863H18.6471H24.7736C25.8851 28.6863 26.9622 28.3367 27.8559 27.6902L32.6914 24.183Z" fill="black" fill-opacity="0.2"/>
</svg>
