<svg width="28" height="28" viewBox="0 0 28 28" fill="none" xmlns="http://www.w3.org/2000/svg">
<path fill-rule="evenodd" clip-rule="evenodd" d="M21.2847 7.92871C20.8847 7.52848 20.4098 7.21099 19.8871 6.99437C19.3644 6.77775 18.8042 6.66626 18.2383 6.66626C17.6725 6.66626 17.1123 6.77775 16.5896 6.99437C16.0669 7.21099 15.592 7.52848 15.192 7.92871L13.9727 9.14738L12.7547 7.92871C11.9468 7.12069 10.8511 6.66667 9.70848 6.66655C8.56588 6.66642 7.47003 7.1202 6.66201 7.92805C5.85398 8.7359 5.39997 9.83165 5.39984 10.9742C5.39972 12.1168 5.85349 13.2127 6.66134 14.0207L7.88001 15.24L13.5013 20.8627C13.6264 20.9877 13.7959 21.0579 13.9727 21.0579C14.1495 21.0579 14.319 20.9877 14.444 20.8627L20.066 15.24L21.2847 14.0214C21.6848 13.6214 22.0022 13.1466 22.2188 12.6239C22.4353 12.1013 22.5468 11.5411 22.5468 10.9754C22.5468 10.4096 22.4353 9.84946 22.2188 9.32682C22.0022 8.80417 21.6848 8.32932 21.2847 7.92938V7.92871Z" stroke="#D15D48" stroke-width="1.7" stroke-linecap="round"/>
<rect x="0.5" y="0.5" width="27" height="27" rx="3.5" stroke="#BBBBBB"/>
</svg>
