<svg width="20" height="20" viewBox="0 0 20 20" fill="none" xmlns="http://www.w3.org/2000/svg">
<path id="Vector" d="M14.5187 2.19884C15.4612 2.19884 16.3452 2.61348 17.0116 3.36108C18.3612 4.88142 18.3807 7.37867 17.059 8.92728L16.9028 9.11261L9.99582 16.8934L3.11667 9.14088L2.93821 8.93042C1.61648 7.37867 1.63879 4.88142 2.98561 3.36422C3.65206 2.61348 4.536 2.20198 5.4785 2.20198C6.39591 2.20198 7.26591 2.59463 7.92678 3.31082L8.0913 3.48673L8.61832 4.08041L9.99861 5.63531L11.3789 4.08041L11.8836 3.51186L12.0704 3.31082C12.7313 2.59463 13.6013 2.20198 14.5187 2.20198M14.5187 0.0031412C13.1496 0.0031412 11.7804 0.57798 10.718 1.72452H10.7152L10.6372 1.80933L10.0014 2.52552L9.28476 1.71823H9.28197C8.21678 0.574839 6.84764 0 5.4785 0C4.0759 0 2.6761 0.60311 1.60532 1.80619C-0.511121 4.19036 -0.533429 8.03204 1.53004 10.4508H1.52725L10.0014 20L18.3947 10.545L18.4728 10.457H18.47C20.5334 8.03204 20.5111 4.19036 18.3947 1.80619C17.3239 0.599969 15.9241 0 14.5215 0L14.5187 0.0031412Z" fill="#D15D48"/>
</svg>
