<svg width="20" height="20" viewBox="0 0 20 20" fill="none" xmlns="http://www.w3.org/2000/svg">
<g id="mainOff_icon" clip-path="url(#clip0_71_617)">
<path id="Vector" d="M18.2069 9.38531C18.5931 9.72994 19.2552 9.75291 19.669 9.43126C20.0828 9.1096 20.1104 8.5582 19.7242 8.21357L10.9656 0.344526C10.9656 0.344526 10.938 0.310063 10.8966 0.287087C10.3725 -0.126468 9.53107 -0.092005 9.04832 0.344526L0.275901 8.21357C-0.110305 8.5582 -0.0827192 9.1096 0.331074 9.43126C0.744867 9.75291 1.40694 9.72994 1.79314 9.38531L10 2.02172L18.2069 9.38531Z" fill="black"/>
<path id="Vector_2" d="M17.931 8.82254V17.1281C17.931 17.737 17.2138 18.2769 16.2759 18.2769H3.72414C2.78621 18.2769 2.06897 17.737 2.06897 17.1281V8.79956C2.06897 8.32857 1.6 7.93799 1.03448 7.93799C0.468966 7.93799 0 8.31708 0 8.79956V17.1281C0 18.7364 1.69655 20 3.72414 20H16.2759C18.3034 20 20 18.7364 20 17.1281V8.82254C20 8.35154 19.531 7.96096 18.9655 7.96096C18.4 7.96096 17.931 8.35154 17.931 8.82254Z" fill="black"/>
<path id="Vector_3" d="M8.27575 18.7939V11.9473H11.724V19.0122H13.793V11.9473C13.793 10.9938 12.8689 10.2241 11.724 10.2241H8.27575C7.13093 10.2241 6.20679 10.9938 6.20679 11.9473V18.7939H8.27575Z" fill="black"/>
</g>
<defs>
<clipPath id="clip0_71_617">
<rect width="20" height="20" fill="white"/>
</clipPath>
</defs>
</svg>
