<svg width="16" height="20" viewBox="0 0 16 20" fill="none" xmlns="http://www.w3.org/2000/svg">
<g id="myOff_icon" clip-path="url(#clip0_71_628)">
<g id="Group 18">
<path id="Vector" d="M7.994 9.41029C10.5165 9.41029 12.5637 7.30238 12.5637 4.70514C12.5637 2.1079 10.5165 0 7.994 0C5.47154 0 3.42432 2.1079 3.42432 4.70514C3.42432 7.30238 5.47154 9.41029 7.994 9.41029ZM7.994 7.52823C6.48296 7.52823 5.25219 6.26098 5.25219 4.70514C5.25219 3.14931 6.48296 1.88206 7.994 1.88206C9.50505 1.88206 10.7358 3.14931 10.7358 4.70514C10.7358 6.26098 9.50505 7.52823 7.994 7.52823Z" fill="black"/>
<path id="Vector_2" d="M7.99391 10.5896C12.2468 10.5896 14.952 12.8983 15.9391 17.3148C16.2072 18.4942 15.4882 19.6737 14.3305 19.9497C14.1721 19.9873 14.0137 19.9999 13.8553 19.9999H2.13252C0.950495 19.9999 0 19.0212 0 17.8042C0 17.641 0.0121858 17.4779 0.0487433 17.3148C1.0358 12.8983 3.74105 10.5896 7.99391 10.5896ZM7.99391 12.4717C4.60625 12.4717 2.61995 14.1655 1.82788 17.7289C1.82788 17.754 1.82788 17.7791 1.82788 17.8042C1.82788 17.9798 1.96192 18.1178 2.13252 18.1178H13.8675C13.8675 18.1178 13.9162 18.1178 13.9406 18.1178C14.099 18.0802 14.2087 17.9171 14.1721 17.7414C13.38 14.1655 11.3938 12.4842 8.00609 12.4842L7.99391 12.4717Z" fill="black"/>
</g>
</g>
<defs>
<clipPath id="clip0_71_628">
<rect width="16" height="20" fill="white"/>
</clipPath>
</defs>
</svg>
