<svg width="16" height="21" viewBox="0 0 16 21" fill="none" xmlns="http://www.w3.org/2000/svg">
<g clip-path="url(#clip0_101_949)">
<path d="M0 7.27C0 3.24 3.48 0 7.75 0C12.02 0 15.5 3.24 15.5 7.27C15.5 9.83 13.25 13.98 8.74 19.89C8.32 20.44 7.54 20.54 6.99 20.13C6.9 20.06 6.82 19.98 6.75 19.89C2.25 13.98 0 9.83 0 7.27ZM14 7.27C14 4.1 11.21 1.5 7.75 1.5C4.29 1.5 1.5 4.1 1.5 7.27C1.5 9.34 3.58 13.21 7.75 18.71C11.92 13.21 14 9.34 14 7.27Z" fill="white"/>
<path d="M7.44004 1.02L7.29004 0.980003C7.29004 0.980003 3.71004 1.1 2.64004 3.1C1.56004 5.1 0.0200402 7.21 1.33004 10.13C2.64004 13.05 7.75004 19.67 7.75004 19.67C7.75004 19.67 14.79 10.21 14.79 7.98C14.79 5.75 12.71 0.900003 7.44004 1.02ZM7.75004 10.7C5.96004 10.7 4.50004 9.24 4.50004 7.45C4.50004 5.66 5.96004 4.2 7.75004 4.2C9.54004 4.2 11 5.66 11 7.45C11 9.24 9.54004 10.7 7.75004 10.7Z" fill="white"/>
</g>
<defs>
<clipPath id="clip0_101_949">
<rect width="15.5" height="20.38" fill="white"/>
</clipPath>
</defs>
</svg>
