<svg width="12" height="20" viewBox="0 0 12 20" fill="none" xmlns="http://www.w3.org/2000/svg">
<g id="Group">
<g id="Vector">
<path d="M3.10187 9.99988L10.9199 2C11.2963 1.62207 11.418 0.866261 10.8372 0.283323C10.4608 -0.0946026 9.85036 -0.0946026 9.47388 0.283323L0.930565 8.85938C0.303093 9.48926 0.303093 10.5105 0.930565 11.1404L9.47388 19.7164C9.85036 20.0944 10.4608 20.0944 10.8372 19.7164C11.2137 19.3385 11.7944 18.7258 11.418 18.3478L3.10187 9.99988Z" fill="black"/>
<path d="M3.10187 9.99988L10.9199 2C11.2963 1.62207 11.418 0.866261 10.8372 0.283323C10.4608 -0.0946026 9.85036 -0.0946026 9.47388 0.283323L0.930565 8.85938C0.303093 9.48926 0.303093 10.5105 0.930565 11.1404L9.47388 19.7164C9.85036 20.0944 10.4608 20.0944 10.8372 19.7164C11.2137 19.3385 11.7944 18.7258 11.418 18.3478L3.10187 9.99988Z" stroke="black"/>
</g>
</g>
</svg>
