<svg width="45" height="44" viewBox="0 0 45 44" fill="none" xmlns="http://www.w3.org/2000/svg">
<path fill-rule="evenodd" clip-rule="evenodd" d="M28.0294 2.34315C24.9052 -0.781047 19.8399 -0.78105 16.7157 2.34314L3.02943 16.0294C-0.0947673 19.1536 -0.09477 24.2189 3.02942 27.3431L16.7157 41.0294C19.8399 44.1536 24.9052 44.1536 28.0294 41.0294L41.7157 27.3431C44.8399 24.2189 44.8399 19.1536 41.7157 16.0294L28.0294 2.34315ZM18.8701 18.5773L22.5001 15.5145C23.1376 14.9793 23.9326 14.6863 24.7501 14.6863C25.4326 14.6863 26.1038 14.8894 26.6776 15.2723L29.4001 17.0889L29.5463 17.1865H29.5726V24.5622L24.3601 19.5618L25.1438 18.9289C25.4063 18.714 25.4551 18.3234 25.2488 18.0499C25.0426 17.7764 24.6676 17.7296 24.4051 17.9405L20.6813 20.9564C20.0326 21.4838 19.0913 21.3471 18.6076 20.6517C18.1501 19.9993 18.2663 19.0852 18.8701 18.5773ZM21.4163 21.9448L23.3551 20.3743L28.3876 25.1795C29.1188 25.8788 29.1676 27.0664 28.4963 27.8282C27.8851 28.5236 26.8951 28.629 26.1676 28.1212C26.0888 28.3517 25.9651 28.5743 25.7963 28.7658C25.1251 29.5276 23.9851 29.5783 23.2538 28.8791L22.6163 28.2696C22.5451 28.5587 22.4063 28.8361 22.2001 29.0744C21.5288 29.8401 20.3926 29.8948 19.6576 29.1955L16.2301 25.9374H15.1726V17.1865L17.8726 15.3114C18.4613 14.9051 19.1476 14.6863 19.8526 14.6902C20.3288 14.6902 20.7976 14.7879 21.2326 14.9793L18.1126 17.6084C17.0138 18.5343 16.8038 20.1985 17.6363 21.3901C18.5213 22.6558 20.2351 22.9058 21.4163 21.9448ZM10.3726 17.8116C10.3726 17.4678 10.6426 17.1865 10.9726 17.1865H13.9726V25.9374C13.9726 26.6288 13.4363 27.1875 12.7726 27.1875H11.5726C10.9088 27.1875 10.3726 26.6288 10.3726 25.9374V17.8116ZM12.5968 24.8703C12.4843 24.7531 12.3317 24.6873 12.1726 24.6873C12.0134 24.6873 11.8608 24.7531 11.7483 24.8703C11.6358 24.9876 11.5726 25.1465 11.5726 25.3123C11.5726 25.4781 11.6358 25.6371 11.7483 25.7543C11.8608 25.8715 12.0134 25.9374 12.1726 25.9374C12.3317 25.9374 12.4843 25.8715 12.5968 25.7543C12.7093 25.6371 12.7726 25.4781 12.7726 25.3123C12.7726 25.1465 12.7093 24.9876 12.5968 24.8703ZM30.7726 25.9374V17.1865H33.7726C34.1026 17.1865 34.3726 17.4678 34.3726 17.8116V25.9374C34.3726 26.6288 33.8363 27.1875 33.1726 27.1875H31.9726C31.3088 27.1875 30.7726 26.6288 30.7726 25.9374ZM32.1483 24.8703C32.0358 24.9876 31.9726 25.1465 31.9726 25.3123C31.9726 25.4781 32.0358 25.6371 32.1483 25.7543C32.2608 25.8715 32.4134 25.9374 32.5726 25.9374C32.7317 25.9374 32.8843 25.8715 32.9968 25.7543C33.1094 25.6371 33.1726 25.4781 33.1726 25.3123C33.1726 25.1465 33.1094 24.9876 32.9968 24.8703C32.8843 24.7531 32.7317 24.6873 32.5726 24.6873C32.4134 24.6873 32.2608 24.7531 32.1483 24.8703Z" fill="#161616"/>
<path fill-rule="evenodd" clip-rule="evenodd" d="M28.0294 2.34315C24.9052 -0.781047 19.8399 -0.78105 16.7157 2.34314L3.02943 16.0294C-0.0947673 19.1536 -0.09477 24.2189 3.02942 27.3431L16.7157 41.0294C19.8399 44.1536 24.9052 44.1536 28.0294 41.0294L41.7157 27.3431C44.8399 24.2189 44.8399 19.1536 41.7157 16.0294L28.0294 2.34315ZM18.8701 18.5773L22.5001 15.5145C23.1376 14.9793 23.9326 14.6863 24.7501 14.6863C25.4326 14.6863 26.1038 14.8894 26.6776 15.2723L29.4001 17.0889L29.5463 17.1865H29.5726V24.5622L24.3601 19.5618L25.1438 18.9289C25.4063 18.714 25.4551 18.3234 25.2488 18.0499C25.0426 17.7764 24.6676 17.7296 24.4051 17.9405L20.6813 20.9564C20.0326 21.4838 19.0913 21.3471 18.6076 20.6517C18.1501 19.9993 18.2663 19.0852 18.8701 18.5773ZM21.4163 21.9448L23.3551 20.3743L28.3876 25.1795C29.1188 25.8788 29.1676 27.0664 28.4963 27.8282C27.8851 28.5236 26.8951 28.629 26.1676 28.1212C26.0888 28.3517 25.9651 28.5743 25.7963 28.7658C25.1251 29.5276 23.9851 29.5783 23.2538 28.8791L22.6163 28.2696C22.5451 28.5587 22.4063 28.8361 22.2001 29.0744C21.5288 29.8401 20.3926 29.8948 19.6576 29.1955L16.2301 25.9374H15.1726V17.1865L17.8726 15.3114C18.4613 14.9051 19.1476 14.6863 19.8526 14.6902C20.3288 14.6902 20.7976 14.7879 21.2326 14.9793L18.1126 17.6084C17.0138 18.5343 16.8038 20.1985 17.6363 21.3901C18.5213 22.6558 20.2351 22.9058 21.4163 21.9448ZM10.3726 17.8116C10.3726 17.4678 10.6426 17.1865 10.9726 17.1865H13.9726V25.9374C13.9726 26.6288 13.4363 27.1875 12.7726 27.1875H11.5726C10.9088 27.1875 10.3726 26.6288 10.3726 25.9374V17.8116ZM12.5968 24.8703C12.4843 24.7531 12.3317 24.6873 12.1726 24.6873C12.0134 24.6873 11.8608 24.7531 11.7483 24.8703C11.6358 24.9876 11.5726 25.1465 11.5726 25.3123C11.5726 25.4781 11.6358 25.6371 11.7483 25.7543C11.8608 25.8715 12.0134 25.9374 12.1726 25.9374C12.3317 25.9374 12.4843 25.8715 12.5968 25.7543C12.7093 25.6371 12.7726 25.4781 12.7726 25.3123C12.7726 25.1465 12.7093 24.9876 12.5968 24.8703ZM30.7726 25.9374V17.1865H33.7726C34.1026 17.1865 34.3726 17.4678 34.3726 17.8116V25.9374C34.3726 26.6288 33.8363 27.1875 33.1726 27.1875H31.9726C31.3088 27.1875 30.7726 26.6288 30.7726 25.9374ZM32.1483 24.8703C32.0358 24.9876 31.9726 25.1465 31.9726 25.3123C31.9726 25.4781 32.0358 25.6371 32.1483 25.7543C32.2608 25.8715 32.4134 25.9374 32.5726 25.9374C32.7317 25.9374 32.8843 25.8715 32.9968 25.7543C33.1094 25.6371 33.1726 25.4781 33.1726 25.3123C33.1726 25.1465 33.1094 24.9876 32.9968 24.8703C32.8843 24.7531 32.7317 24.6873 32.5726 24.6873C32.4134 24.6873 32.2608 24.7531 32.1483 24.8703Z" fill="black" fill-opacity="0.2"/>
</svg>
